<svg width="256px" height="256px" viewBox="0 0 256 256">
<path [attr.fill]="fillColor" d="M 72.953125 180.277344 L 43.839844 180.277344 C 41.363281 180.277344 39.363281 182.363281 39.539062 184.832031 C 40.578125 199.46875 69.082031 225.96875 75.835938 232.050781 C 76.742188 232.871094 77.257812 234.03125 77.257812 235.253906 L 77.257812 237.855469 C 77.257812 247.875 85.382812 256 95.402344 256 L 160.589844 256 C 170.613281 256 178.738281 247.875 178.738281 237.851562 L 178.738281 235.253906 C 178.738281 234.03125 179.253906 232.871094 180.164062 232.054688 C 186.914062 225.96875 215.417969 199.46875 216.460938 184.832031 C 216.636719 182.363281 214.636719 180.277344 212.15625 180.277344 L 183.046875 180.277344 C 180.667969 180.277344 178.742188 178.347656 178.742188 175.96875 L 178.742188 156.453125 C 178.742188 155.234375 179.257812 154.070312 180.164062 153.253906 C 186.917969 147.167969 215.421875 120.667969 216.460938 106.035156 C 216.636719 103.566406 214.636719 101.480469 212.160156 101.480469 L 183.050781 101.480469 C 180.667969 101.480469 178.742188 99.550781 178.742188 97.171875 L 178.742188 77.65625 C 178.742188 76.4375 179.257812 75.273438 180.164062 74.457031 C 186.917969 68.371094 215.421875 41.871094 216.460938 27.238281 C 216.636719 24.765625 214.636719 22.679688 212.160156 22.679688 L 183.050781 22.679688 C 180.671875 22.679688 178.742188 20.75 178.742188 18.371094 L 178.742188 18.144531 C 178.742188 8.125 170.617188 0 160.597656 0 L 95.40625 0 C 85.382812 0 77.257812 8.125 77.257812 18.144531 L 77.257812 18.371094 C 77.257812 20.75 75.332031 22.679688 72.953125 22.679688 L 43.839844 22.679688 C 41.363281 22.679688 39.363281 24.765625 39.539062 27.238281 C 40.578125 41.871094 69.085938 68.371094 75.835938 74.457031 C 76.742188 75.273438 77.261719 76.4375 77.261719 77.65625 L 77.261719 97.171875 C 77.261719 99.550781 75.332031 101.480469 72.953125 101.480469 L 43.839844 101.480469 C 41.363281 101.480469 39.363281 103.566406 39.539062 106.035156 C 40.578125 120.667969 69.085938 147.167969 75.835938 153.253906 C 76.742188 154.070312 77.261719 155.234375 77.261719 156.453125 L 77.261719 175.96875 C 77.261719 178.347656 75.332031 180.277344 72.953125 180.277344 Z M 128.15625 21.871094 C 143.863281 21.871094 156.597656 34.605469 156.597656 50.316406 C 156.597656 66.023438 143.863281 78.757812 128.15625 78.757812 C 112.445312 78.757812 99.710938 66.023438 99.710938 50.316406 C 99.710938 34.605469 112.445312 21.871094 128.15625 21.871094 Z M 128.15625 99.710938 C 143.863281 99.710938 156.597656 112.445312 156.597656 128.152344 C 156.597656 143.863281 143.863281 156.597656 128.15625 156.597656 C 112.445312 156.597656 99.710938 143.863281 99.710938 128.152344 C 99.710938 112.445312 112.445312 99.710938 128.15625 99.710938 Z M 128.15625 177.546875 C 143.863281 177.546875 156.597656 190.28125 156.597656 205.992188 C 156.597656 221.699219 143.863281 234.433594 128.15625 234.433594 C 112.445312 234.433594 99.710938 221.699219 99.710938 205.992188 C 99.710938 190.28125 112.445312 177.546875 128.15625 177.546875 Z M 128.15625 177.546875 "/>
</svg>